# xmcd
#
# Track frame offsets:
# 150
# 15838
# 36053
# 53247
# 66570
# 81950
# 106958
# 123719
# 137945
# 154334
# 168456
# 185866
# 197590
# 217096
# 230425
#
# Disc length: 3271 seconds
#
#
# Revision: 0
# Processed by: cddbd v1.5.2PL0 Copyright (c) Steve Scherf et al.
# Submitted via: FreeRIP 2.944 
#
DISCID=de0cc50f
DTITLE=Victor and Léo - Ao Vivo
DYEAR=1900
DGENRE=Country
TTITLE0=Sinto Falta De Você
TTITLE1=Quem de Nós
TTITLE2=Fada
TTITLE3=Telefone Mudo
TTITLE4=Jogo da Vida
TTITLE5=60 Dias Apaixonado - Fazenda São Francisco
TTITLE6=O Granfino e o Caipira
TTITLE7=Vida Nova
TTITLE8=Amigo Apaixonado
TTITLE9=Arapuca
TTITLE10=Lembranças de Amor
TTITLE11=Chuva de Bruxaria
TTITLE12=Meu Eu em Você
TTITLE13=O Cuidador do Fogo
TTITLE14=Milonga Para as Missões (Instrumental
EXTD=
EXTT0=
EXTT1=
EXTT2=
EXTT3=
EXTT4=
EXTT5=
EXTT6=
EXTT7=
EXTT8=
EXTT9=
EXTT10=
EXTT11=
EXTT12=
EXTT13=
EXTT14=
PLAYORDER=
